<?xml version="1.0" encoding="UTF-8"?>
<svg id="Layer_1" data-name="Layer 1" xmlns="http://www.w3.org/2000/svg" viewBox="0 0 240 260">
  <defs>
    <style>
      .cls-1 {
        stroke: #042b3a;
        stroke-width: 4.48px;
      }

      .cls-1, .cls-2, .cls-3, .cls-4, .cls-5 {
        fill: none;
        stroke-linecap: round;
        stroke-linejoin: round;
      }

      .cls-6 {
        fill: #fff;
        font-family: MyriadPro-Regular, 'Myriad Pro';
        font-size: 11.32px;
      }

      .cls-2 {
        stroke-width: 1.98px;
      }

      .cls-2, .cls-3 {
        stroke: #10323b;
      }

      .cls-7 {
        fill: #10323b;
      }

      .cls-3 {
        stroke-width: .99px;
      }

      .cls-4 {
        stroke: #000;
      }

      .cls-5 {
        stroke: #fff;
        stroke-width: .51px;
      }

      .cls-8 {
        fill: #5b7a6a;
      }

      .cls-9 {
        fill: #112d43;
      }

      .cls-10 {
        fill: #09232c;
      }

      .cls-11 {
        fill: #0e3441;
      }

      .cls-12 {
        fill: #264859;
      }
    </style>
  </defs>
  <g id="SPLINE">
    <path class="cls-4" d="M32.5,116.8c1.26,0,10.67,1.56,10.67,1.56,0,0,10.67,7.15,13.19,12.75,0,0,1.54,2.15,4.06,2.15s7.61.7,9.18,1.94c1.57,1.24-.05.88,5.6,4.61,5.65,3.73,22.53.03,24.73,1.27,2.2,1.24,7.77.86,7.9.83,5.55-1.1,18.24-5.89,24.2-6.19,14.44-.73,27.11.52,31.19-.73s9.31-2.64,13.08-2.64,15.38-.31,20.41.93c5.02,1.24,11.93,2.18,11.93,2.18l1.15,8.45s-24.41,2.72-25.98,3.97-17.56,6.25-21.64,8.11-25.75,9.33-38.3,6.84c0,0-21.98,3.11-31.71-1.87-9.73-4.98-27.32-7.78-29.51-9.95s-30.77-8.09-30.77-8.09l-1.88-26.75,2.51.62Z"/>
  </g>
  <g id="HATCH">
    <path class="cls-8" d="M32.5,116.8c1.26,0,10.67,1.56,10.67,1.56,0,0,10.67,7.15,13.19,12.75,0,0,1.54,2.15,4.06,2.15s7.61.7,9.18,1.94c1.57,1.24-.05.88,5.6,4.61,5.65,3.73,22.53.03,24.73,1.27,2.2,1.24,7.77.86,7.9.83,5.55-1.1,18.24-5.89,24.2-6.19,14.44-.73,27.11.52,31.19-.73s9.31-2.64,13.08-2.64,15.38-.31,20.41.93c5.02,1.24,11.93,2.18,11.93,2.18l1.15,8.45s-24.41,2.72-25.98,3.97-17.56,6.25-21.64,8.11-25.75,9.33-38.3,6.84c0,0-21.98,3.11-31.71-1.87-9.73-4.98-27.32-7.78-29.51-9.95s-30.77-8.09-30.77-8.09l-1.88-26.75,2.51.62Z"/>
  </g>
  <g id="LWPOLYLINE">
    <polygon class="cls-4" points="133.86 135.64 134.63 135.64 134.53 136.03 183.56 130.97 204.87 134.82 209.53 135.48 208.83 136.44 183.52 134.86 162.89 136.94 146.92 137.51 136.45 137.09 131.68 135.72 133.86 135.64"/>
  </g>
  <g id="HATCH-2" data-name="HATCH">
    <polygon class="cls-7" points="133.86 135.64 134.63 135.64 134.53 136.03 183.56 130.97 204.87 134.82 209.53 135.48 208.83 136.44 183.52 134.86 162.89 136.94 146.92 137.51 136.45 137.09 131.68 135.72 133.86 135.64"/>
  </g>
  <g id="SPLINE-2" data-name="SPLINE">
    <path class="cls-4" d="M31.85,142.92s11.98-.62,17.96.62c5.99,1.24,19.54,10.57,32.15,13.06,12.61,2.49,21.12,5.6,27.73,6.22,6.62.62,35.09-1.3,46.43-4.72,11.35-3.42,26.05-12.39,31.73-12.7,5.67-.31,17.86-1.81,21.01-1.81l.5,24.57-177.75.21.24-25.45Z"/>
  </g>
  <g id="HATCH-3" data-name="HATCH">
    <path class="cls-9" d="M31.85,142.92s11.98-.62,17.96.62c5.99,1.24,19.54,10.57,32.15,13.06,12.61,2.49,21.12,5.6,27.73,6.22,6.62.62,35.09-1.3,46.43-4.72,11.35-3.42,26.05-12.39,31.73-12.7,5.67-.31,17.86-1.81,21.01-1.81l.5,24.57-177.75.21.24-25.45Z"/>
  </g>
  <g id="SPLINE-3" data-name="SPLINE">
    <path class="cls-4" d="M147.64,96.49l.97.58.66,3.77.71,1.19.47,3.67.95.15-.93,1.09,2.03.3-1.68,1.96,1.87.27-1.46,1.35,2.48.48-2.25,1.13,3.54-.04-1.94,2.18-1.19,1.61,1.97.83,2.7.83s-.93,2.18-1.24,2.18-1.97.41-1.97.41l-.31,2.38,3.52.21-.93,1.35-.21,1.87,3.94.62,1.45,1.66v2.18l-4.46.52,4.46,2.9v1.24l-26.33.83s-.31-1.76.1-1.76,1.66-.41,1.66-.41l-.31-1.14h5.08l-2.28-1.04h-1.97l-1.56-2.18.41-1.56,3.94-.1-.31-1.66,2.07-.1-2.7-1.24-.73-1.97,2.59-.1.73-1.24,2.28-.62.52-.73-4.46-.41-1.04-1.24,2.28-1.04,1.14-.93-.93-.52h2.9l-1.66-1.87.83-.52-2.28-.52,2.8-.93v-1.14l1.66-.31-1.56-1.35-.1-1.14-1.66-.21.21-1.14,2.59-.1,1.76-.21-1.45-.62.93-1.35.41-4.04-.21-1.35,1.49-2.89Z"/>
  </g>
  <g id="HATCH-4" data-name="HATCH">
    <path class="cls-10" d="M147.64,96.49l.97.58.66,3.77.71,1.19.47,3.67.95.15-.93,1.09,2.03.3-1.68,1.96,1.87.27-1.46,1.35,2.48.48-2.25,1.13,3.54-.04-1.94,2.18-1.19,1.61,1.97.83,2.7.83s-.93,2.18-1.24,2.18-1.97.41-1.97.41l-.31,2.38,3.52.21-.93,1.35-.21,1.87,3.94.62,1.45,1.66v2.18l-4.46.52,4.46,2.9v1.24l-26.33.83s-.31-1.76.1-1.76,1.66-.41,1.66-.41l-.31-1.14h5.08l-2.28-1.04h-1.97l-1.56-2.18.41-1.56,3.94-.1-.31-1.66,2.07-.1-2.7-1.24-.73-1.97,2.59-.1.73-1.24,2.28-.62.52-.73-4.46-.41-1.04-1.24,2.28-1.04,1.14-.93-.93-.52h2.9l-1.66-1.87.83-.52-2.28-.52,2.8-.93v-1.14l1.66-.31-1.56-1.35-.1-1.14-1.66-.21.21-1.14,2.59-.1,1.76-.21-1.45-.62.93-1.35.41-4.04-.21-1.35,1.49-2.89Z"/>
  </g>
  <g id="SPLINE-4" data-name="SPLINE">
    <path class="cls-4" d="M172.07,77.17l1.48,1.4-.31,1.17,1.48,1.63v2.02l2.49,2.1-1.71,1.63,1.79.62-.54,1.09s3.03.16,3.34.16-1.94,1.32-1.94,1.32l.39.31-.16.93-3.19.23,1.4,1.09.78.47-.62.86h3.27l-.47,1.17,3.11.39-.62,1.4.7.47-3.03.62.93.62-3.42.93,1.4.7,3.42.39-1.79.62,1.32,1.56-2.95.47,1.24,1.63-.78.7,4.35.16-1.56.93,3.58.16-.86.93,2.33.54-2.1,1.09.93,1.17-2.41.39,1.32.86-5.21.23,1.09,1.01-.62.47,2.95.31-.62.78,2.41.47-2.41,1.09,1.94,1.09-.78,1.01,5.11,3.68-6.04,2.07,7.46,5.29-4.59,2.8-23.4,3.03-7.41-3.71,6.17-1.89-4.2-3.58,4.9-1.17-1.24-2.02,2.18-.78-3.19-1.09,3.58-1.01-.93-1.09,3.65-1.09-1.24-.86,2.02-2.1-5.91-.54,1.17-1.79-2.64-1.56,4.43-.78-1.56-.54,3.89-.86-1.79-.86,2.88-.7-2.41-1.94.93-.86-4.12-.62,2.02-.93-2.49-.47,2.72-.62-1.94-1.32,5.91-.31-1.94-.86s3.42-1.17,3.65-1.17-3.34-1.71-3.34-1.71l3.34-1.24-2.95-.93,4.9-1.79-3.97-1.24,2.18-1.01-3.58-1.79,4.04-.23-.7-1.01,2.1-2.1-.78-1.63,1.63-1.32-.62-.7.78-4.43Z"/>
  </g>
  <g id="HATCH-5" data-name="HATCH">
    <path class="cls-11" d="M172.07,77.17l1.48,1.4-.31,1.17,1.48,1.63v2.02l2.49,2.1-1.71,1.63,1.79.62-.54,1.09s3.03.16,3.34.16-1.94,1.32-1.94,1.32l.39.31-.16.93-3.19.23,1.4,1.09.78.47-.62.86h3.27l-.47,1.17,3.11.39-.62,1.4.7.47-3.03.62.93.62-3.42.93,1.4.7,3.42.39-1.79.62,1.32,1.56-2.95.47,1.24,1.63-.78.7,4.35.16-1.56.93,3.58.16-.86.93,2.33.54-2.1,1.09.93,1.17-2.41.39,1.32.86-5.21.23,1.09,1.01-.62.47,2.95.31-.62.78,2.41.47-2.41,1.09,1.94,1.09-.78,1.01,5.11,3.68-6.04,2.07,7.46,5.29-4.59,2.8-23.4,3.03-7.41-3.71,6.17-1.89-4.2-3.58,4.9-1.17-1.24-2.02,2.18-.78-3.19-1.09,3.58-1.01-.93-1.09,3.65-1.09-1.24-.86,2.02-2.1-5.91-.54,1.17-1.79-2.64-1.56,4.43-.78-1.56-.54,3.89-.86-1.79-.86,2.88-.7-2.41-1.94.93-.86-4.12-.62,2.02-.93-2.49-.47,2.72-.62-1.94-1.32,5.91-.31-1.94-.86s3.42-1.17,3.65-1.17-3.34-1.71-3.34-1.71l3.34-1.24-2.95-.93,4.9-1.79-3.97-1.24,2.18-1.01-3.58-1.79,4.04-.23-.7-1.01,2.1-2.1-.78-1.63,1.63-1.32-.62-.7.78-4.43Z"/>
  </g>
  <g id="SPLINE-5" data-name="SPLINE">
    <path class="cls-4" d="M201.7,134.4l-2.1-1.87,2.49-2.02-3.03-2.49,3.03-.93-3.81-1.79,1.56-2.25-5.05-1.4,2.95-1.63-.78-.62,2.02-.16-2.64-1.48.78-.86-2.33-.62,1.48-.39-2.88-1.09,2.57-.86-1.71-2.25.7-3.5-1.87-.7-.08-4.9-1.4,1.71-.93.62.08,6.53-2.02.7s2.1.86,1.48,1.01-2.57.39-2.57.39l2.41,2.64-3.73.7,1.56,1.01-3.27.86,3.34,1.4-2.8,1.17,1.17,1.24-5.29,1.94,5.83,3.34-4.43,4.82,19.28,1.71Z"/>
  </g>
  <g id="HATCH-6" data-name="HATCH">
    <path class="cls-7" d="M201.7,134.4l-2.1-1.87,2.49-2.02-3.03-2.49,3.03-.93-3.81-1.79,1.56-2.25-5.05-1.4,2.95-1.63-.78-.62,2.02-.16-2.64-1.48.78-.86-2.33-.62,1.48-.39-2.88-1.09,2.57-.86-1.71-2.25.7-3.5-1.87-.7-.08-4.9-1.4,1.71-.93.62.08,6.53-2.02.7s2.1.86,1.48,1.01-2.57.39-2.57.39l2.41,2.64-3.73.7,1.56,1.01-3.27.86,3.34,1.4-2.8,1.17,1.17,1.24-5.29,1.94,5.83,3.34-4.43,4.82,19.28,1.71Z"/>
  </g>
  <g id="SPLINE-6" data-name="SPLINE">
    <path class="cls-1" d="M30.03,169.41l180.4.53-.04-73.75c0-15.69-3.86-31.18-11.45-44.91-11.65-21.07-34.48-45.11-78.17-46.13,0,0-56.26-1.36-80.72,51.74-5.86,12.72-8.77,26.59-8.98,40.59l-1.04,71.94Z"/>
  </g>
  <g id="SPLINE-7" data-name="SPLINE">
    <path class="cls-4" d="M58.77,47.15l-.23,15.08s34.21-7,62.13,1.09l.08-16.64s-32.97-10.11-61.97.47Z"/>
  </g>
  <g id="HATCH-7" data-name="HATCH">
    <path class="cls-7" d="M58.77,47.15l-.23,15.08s34.21-7,62.13,1.09l.08-16.64s-32.97-10.11-61.97.47Z"/>
  </g>
  <g id="LWPOLYLINE-2" data-name="LWPOLYLINE">
    <polygon class="cls-4" points="87.15 59.05 87.83 165.78 92.78 165.71 92.44 58.84 87.15 59.05"/>
  </g>
  <g id="HATCH-8" data-name="HATCH">
    <polygon class="cls-7" points="87.15 59.05 87.83 165.78 92.78 165.71 92.44 58.84 87.15 59.05"/>
  </g>
  <g id="SPLINE-8" data-name="SPLINE">
    <path class="cls-3" d="M97.98,58.69s-.78,53.03-6.69,54.74"/>
  </g>
  <g id="SPLINE-9" data-name="SPLINE">
    <path class="cls-3" d="M90.71,116.49c13.22-6.22,14.27-57.64,14.27-57.64"/>
  </g>
  <g id="SPLINE-10" data-name="SPLINE">
    <path class="cls-3" d="M113.07,59s-1.98,45.2-20.33,56.09"/>
  </g>
  <g id="SPLINE-11" data-name="SPLINE">
    <path class="cls-3" d="M119.13,62.16s-4.06,47.84-28.68,54.98"/>
  </g>
  <g id="SPLINE-12" data-name="SPLINE">
    <path class="cls-3" d="M54.89,106.99s27.99-5.82,67.49.45"/>
  </g>
  <g id="SPLINE-13" data-name="SPLINE">
    <path class="cls-2" d="M56.55,107.93c45.95,4.43,63.82.58,65.5.19.06-.01.1.04.08.09-.99,2.41-3.83,19.31-3.83,19.31-3.73,2.49-11.2,3.11-11.2,3.11,0,0-8.74.32-17.55.19-6.63-.1-13.37-.66-16.04-.66-6.22,0-13.84-3.73-13.84-3.73l-3.11-18.51Z"/>
  </g>
  <g id="SPLINE-14" data-name="SPLINE">
    <path class="cls-2" d="M58.34,117.87s59.87,1.14,61.27.52-11.61,9.28-60.34,1.19"/>
  </g>
  <g id="LINE">
    <line class="cls-2" x1="110.95" y1="109.32" x2="109.45" y2="130.21"/>
  </g>
  <g id="LINE-2" data-name="LINE">
    <line class="cls-2" x1="102.1" y1="109.56" x2="100.24" y2="129.72"/>
  </g>
  <g id="LINE-3" data-name="LINE">
    <line class="cls-2" x1="77.1" y1="110.35" x2="79.38" y2="130.36"/>
  </g>
  <g id="LINE-4" data-name="LINE">
    <line class="cls-2" x1="67.5" y1="109.05" x2="69.1" y2="130.15"/>
  </g>
  <g id="LWPOLYLINE-3" data-name="LWPOLYLINE">
    <line class="cls-2" x1="56.76" y1="108.85" x2="56.76" y2="108.85"/>
  </g>
  <g id="MTEXT">
    <text class="cls-6" transform="translate(107.03 56.25) rotate(8.04)"><tspan x="0" y="0">24</tspan></text>
  </g>
  <g id="ELLIPSE">
    <ellipse class="cls-4" cx="150.85" cy="67.54" rx="18.97" ry="8.81" transform="translate(-8.25 22.75) rotate(-8.4)"/>
  </g>
  <g id="HATCH-9" data-name="HATCH">
    <ellipse class="cls-11" cx="150.85" cy="67.54" rx="18.97" ry="8.81" transform="translate(-8.25 22.75) rotate(-8.4)"/>
  </g>
  <g id="SPLINE-15" data-name="SPLINE">
    <path class="cls-4" d="M134.34,73.78s5.96,2.53,13.02,2.27,14.87-3.29,14.87-3.31c0-.02,6.69-4.73,6.69-4.73,0,0-.13.44-1.65,2.02-.22.23-.65.46-.93.74-.34.35-1.41,1.76-7.35,3.85-2.51.88-6.15,1.53-9.75,2.07,0,0-5.81.38-9.69-.65-2.56-.68-5.23-2.27-5.23-2.27Z"/>
  </g>
  <g id="HATCH-10" data-name="HATCH">
    <path class="cls-12" d="M134.34,73.78s5.96,2.53,13.02,2.27c6.88-.25,14.87-3.29,14.87-3.31,0-.02,6.69-4.73,6.69-4.73,0,0-.13.44-1.65,2.02-.22.23-.65.46-.93.74-.34.35-1.41,1.76-7.35,3.85-2.51.88-6.15,1.53-9.75,2.07,0,0-5.81.38-9.69-.65-2.56-.68-5.23-2.27-5.23-2.27Z"/>
  </g>
  <g id="SPLINE-16" data-name="SPLINE">
    <path class="cls-5" d="M182.32,63.65l-8.68,3.09-.71.87-.75-.14s.04-1.91.12-1.9,9.03-1.87,9.03-1.87l.98-.07Z"/>
  </g>
  <g id="HATCH-11" data-name="HATCH">
    <path class="cls-11" d="M182.32,63.65l-8.68,3.09-.71.87-.75-.14s.04-1.91.12-1.9,9.03-1.87,9.03-1.87l.98-.07Z"/>
  </g>
  <g id="SPLINE-17" data-name="SPLINE">
    <path class="cls-5" d="M185.87,59.51c-.09.05-10.51,3.29-11.53,3.51s-.87.85-.87.85l-1.87-1.8.37-.49,13.91-2.08Z"/>
  </g>
  <g id="HATCH-12" data-name="HATCH">
    <path class="cls-11" d="M185.87,59.51c-.09.05-10.51,3.29-11.53,3.51s-.87.85-.87.85l-1.87-1.8.37-.49,13.91-2.08Z"/>
  </g>
  <g id="SPLINE-18" data-name="SPLINE">
    <path class="cls-5" d="M184.94,56.52c-.11.05-12.41,3.38-13.61,3.59s-1.06.95-1.06.95l-2.1-2.18.45-.56,16.31-1.81Z"/>
  </g>
  <g id="HATCH-13" data-name="HATCH">
    <path class="cls-11" d="M184.94,56.52c-.11.05-12.41,3.38-13.61,3.59s-1.06.95-1.06.95l-2.1-2.18.45-.56,16.31-1.81Z"/>
  </g>
  <g id="SPLINE-19" data-name="SPLINE">
    <path class="cls-4" d="M44.65,186.56c-2.83.37-3.31.87-4.41,4.13-1.13,3.38-4.18,13.03-6.57,20.79h-1.92c-2.04-5.89-4.44-12.4-6.64-18.33-2.15,6.29-4.26,12.44-6.2,18.33h-1.96c-1.73-6.03-4.17-13.98-6.37-20.99-1.01-3.09-1.55-3.68-4.03-3.93v-1.35h11.24v1.35c-2.97.29-3.05.83-2.49,2.87,1.39,4.85,2.86,9.72,4.28,14.5,2.08-5.85,4.16-12.17,6.05-18.46h1.81c2.2,6.32,4.45,12.36,6.68,18.5,1.54-4.64,3.57-11.43,4.24-14.11.57-2.33.2-2.98-3.2-3.3v-1.35h9.49v1.35Z"/>
  </g>
  <g id="HATCH-14" data-name="HATCH">
    <path class="cls-7" d="M44.65,186.56c-2.83.37-3.31.87-4.41,4.13-1.13,3.38-4.18,13.03-6.57,20.79h-1.92c-2.04-5.89-4.44-12.4-6.64-18.33-2.15,6.29-4.26,12.44-6.2,18.33h-1.96c-1.73-6.03-4.17-13.98-6.37-20.99-1.01-3.09-1.55-3.68-4.03-3.93v-1.35h11.24v1.35c-2.97.29-3.05.83-2.49,2.87,1.39,4.85,2.86,9.72,4.28,14.5,2.08-5.85,4.16-12.17,6.05-18.46h1.81c2.2,6.32,4.45,12.36,6.68,18.5,1.54-4.64,3.57-11.43,4.24-14.11.57-2.33.2-2.98-3.2-3.3v-1.35h9.49v1.35Z"/>
  </g>
  <g id="SPLINE-20" data-name="SPLINE">
    <path class="cls-4" d="M45.96,211.04v-1.35c3.1-.31,3.45-.52,3.45-3.87v-15.36c0-3.37-.37-3.63-3.45-3.91v-1.35h11.71v1.35c-3.09.31-3.46.54-3.46,3.91v15.36c0,3.34.34,3.54,3.46,3.87v1.35h-11.71Z"/>
  </g>
  <g id="HATCH-15" data-name="HATCH">
    <path class="cls-7" d="M45.96,211.04v-1.35c3.1-.31,3.45-.52,3.45-3.87v-15.36c0-3.37-.37-3.63-3.45-3.91v-1.35h11.71v1.35c-3.09.31-3.46.54-3.46,3.91v15.36c0,3.34.34,3.54,3.46,3.87v1.35h-11.71Z"/>
  </g>
  <g id="SPLINE-21" data-name="SPLINE">
    <path class="cls-4" d="M81.94,204.19c-.29,1.54-1.43,5.73-1.8,6.86h-19.28v-1.35c3.54-.28,3.86-.53,3.86-3.88v-15.36c0-3.35-.4-3.63-3.45-3.89v-1.35h11.79v1.35c-3.13.29-3.54.53-3.54,3.89v15.68c0,2.27.16,3.11,2.38,3.15.07.03,2.26.04,2.44.04,2.18,0,2.78-.39,3.72-1.44.84-.88,1.8-2.55,2.48-4.12l1.41.42Z"/>
  </g>
  <g id="HATCH-16" data-name="HATCH">
    <path class="cls-7" d="M81.94,204.19c-.29,1.54-1.43,5.73-1.8,6.86h-19.28v-1.35c3.54-.28,3.86-.53,3.86-3.88v-15.36c0-3.35-.4-3.63-3.45-3.89v-1.35h11.79v1.35c-3.13.29-3.54.53-3.54,3.89v15.68c0,2.27.16,3.11,2.38,3.15.07.03,2.26.04,2.44.04,2.18,0,2.78-.39,3.72-1.44.84-.88,1.8-2.55,2.48-4.12l1.41.42Z"/>
  </g>
  <g id="SPLINE-22" data-name="SPLINE">
    <path class="cls-4" d="M104.71,204.19c-.29,1.54-1.43,5.73-1.8,6.86h-19.28v-1.35c3.54-.28,3.86-.53,3.86-3.88v-15.36c0-3.35-.4-3.63-3.45-3.89v-1.35h11.79v1.35c-3.13.29-3.54.53-3.54,3.89v15.68c0,2.27.16,3.11,2.38,3.15.07.03,2.26.04,2.44.04,2.18,0,2.78-.39,3.72-1.44.84-.88,1.8-2.55,2.48-4.12l1.41.42Z"/>
  </g>
  <g id="HATCH-17" data-name="HATCH">
    <path class="cls-7" d="M104.71,204.19c-.29,1.54-1.43,5.73-1.8,6.86h-19.28v-1.35c3.54-.28,3.86-.53,3.86-3.88v-15.36c0-3.35-.4-3.63-3.45-3.89v-1.35h11.79v1.35c-3.13.29-3.54.53-3.54,3.89v15.68c0,2.27.16,3.11,2.38,3.15.07.03,2.26.04,2.44.04,2.18,0,2.78-.39,3.72-1.44.84-.88,1.8-2.55,2.48-4.12l1.41.42Z"/>
  </g>
  <g id="SPLINE-23" data-name="SPLINE">
    <path class="cls-4" d="M137.31,211.04v-1.35c3.1-.32,3.27-.58,3.26-4.4v-15.75c-3.01,6.99-6.89,15.87-9.24,21.49h-1.21c-2.15-5.48-5.56-14.11-8.47-21.14-.57,12.98-.59,15.68-.59,16.87.04,2.17.9,2.65,3.79,2.92v1.35h-9.7v-1.35c2.28-.21,3.28-.66,3.6-2.96.19-1.39.3-3.36,1.26-16.96.13-1.96-.19-2.9-3.63-3.21v-1.35h8l8.06,18.44,8.31-18.44h7.89v1.35c-3.26.35-3.65.68-3.57,3.72l.26,15.03c.08,3.81.23,3.99,3.54,4.4v1.35h-11.55Z"/>
  </g>
  <g id="HATCH-18" data-name="HATCH">
    <path class="cls-7" d="M137.31,211.04v-1.35c3.1-.32,3.27-.58,3.26-4.4v-15.75c-3.01,6.99-6.89,15.87-9.24,21.49h-1.21c-2.15-5.48-5.56-14.11-8.47-21.14-.57,12.98-.59,15.68-.59,16.87.04,2.17.9,2.65,3.79,2.92v1.35h-9.7v-1.35c2.28-.21,3.28-.66,3.6-2.96.19-1.39.3-3.36,1.26-16.96.13-1.96-.19-2.9-3.63-3.21v-1.35h8l8.06,18.44,8.31-18.44h7.89v1.35c-3.26.35-3.65.68-3.57,3.72l.26,15.03c.08,3.81.23,3.99,3.54,4.4v1.35h-11.55Z"/>
  </g>
  <g id="SPLINE-24" data-name="SPLINE">
    <path class="cls-4" d="M152.03,211.04v-1.35c3.1-.31,3.45-.52,3.45-3.87v-15.36c0-3.37-.37-3.63-3.45-3.91v-1.35h11.71v1.35c-3.09.31-3.46.54-3.46,3.91v15.36c0,3.34.34,3.54,3.46,3.87v1.35h-11.71Z"/>
  </g>
  <g id="HATCH-19" data-name="HATCH">
    <path class="cls-7" d="M152.03,211.04v-1.35c3.1-.31,3.45-.52,3.45-3.87v-15.36c0-3.37-.37-3.63-3.45-3.91v-1.35h11.71v1.35c-3.09.31-3.46.54-3.46,3.91v15.36c0,3.34.34,3.54,3.46,3.87v1.35h-11.71Z"/>
  </g>
  <g id="SPLINE-25" data-name="SPLINE">
    <path class="cls-4" d="M188.01,204.19c-.29,1.54-1.43,5.73-1.8,6.86h-19.28v-1.35c3.54-.28,3.86-.53,3.86-3.88v-15.36c0-3.35-.4-3.63-3.45-3.89v-1.35h11.79v1.35c-3.13.29-3.54.53-3.54,3.89v15.68c0,2.27.16,3.11,2.38,3.15.07.03,2.26.04,2.44.04,2.18,0,2.78-.39,3.72-1.44.84-.88,1.8-2.55,2.48-4.12l1.41.42Z"/>
  </g>
  <g id="HATCH-20" data-name="HATCH">
    <path class="cls-7" d="M188.01,204.19c-.29,1.54-1.43,5.73-1.8,6.86h-19.28v-1.35c3.54-.28,3.86-.53,3.86-3.88v-15.36c0-3.35-.4-3.63-3.45-3.89v-1.35h11.79v1.35c-3.13.29-3.54.53-3.54,3.89v15.68c0,2.27.16,3.11,2.38,3.15.07.03,2.26.04,2.44.04,2.18,0,2.78-.39,3.72-1.44.84-.88,1.8-2.55,2.48-4.12l1.41.42Z"/>
  </g>
  <g id="SPLINE-26" data-name="SPLINE">
    <path class="cls-4" d="M211.51,204.44c-.21,1.06-1.31,5.46-1.68,6.6h-20.17v-1.32c3.64-.33,3.9-.58,3.9-3.89v-15.36c0-3.43-.46-3.66-3.26-3.91v-1.35h12.65c4.02,0,5.47-.04,5.99-.08.04.81.22,3.97.38,6.31l-1.42.2c-.36-1.35-.94-2.7-1.53-3.46-.69-.98-1.34-1.23-3.49-1.23h-3c-1.41,0-1.54.09-1.54,1.37v8.47h4.08c2.49,0,2.82-.6,3.37-3.38h1.44v8.63h-1.44c-.59-2.91-.91-3.36-3.41-3.36h-4.04v7.21c0,2.76.36,3.38,2.65,3.42h3.13c2.3,0,2.82-.31,3.7-1.36.91-1.04,1.72-2.57,2.33-3.86l1.37.34Z"/>
  </g>
  <g id="HATCH-21" data-name="HATCH">
    <path class="cls-7" d="M211.51,204.44c-.21,1.06-1.31,5.46-1.68,6.6h-20.17v-1.32c3.64-.33,3.9-.58,3.9-3.89v-15.36c0-3.43-.46-3.66-3.26-3.91v-1.35h12.65c4.02,0,5.47-.04,5.99-.08.04.81.22,3.97.38,6.31l-1.42.2c-.36-1.35-.94-2.7-1.53-3.46-.69-.98-1.34-1.23-3.49-1.23h-3c-1.41,0-1.54.09-1.54,1.37v8.47h4.08c2.49,0,2.82-.6,3.37-3.38h1.44v8.63h-1.44c-.59-2.91-.91-3.36-3.41-3.36h-4.04v7.21c0,2.76.36,3.38,2.65,3.42h3.13c2.3,0,2.82-.31,3.7-1.36.91-1.04,1.72-2.57,2.33-3.86l1.37.34Z"/>
  </g>
  <g id="SPLINE-27" data-name="SPLINE">
    <path class="cls-4" d="M228.88,191.59c-.75-2.57-1.87-5.36-5.55-5.36-2.58,0-3.94,1.85-3.94,4.02,0,2.38,1.57,3.72,5,5.45,4.43,2.23,6.91,4.21,6.91,8.09,0,4.51-3.8,7.84-9.29,7.84-2.49,0-4.68-.68-6.47-1.26-.27-.98-.87-4.62-1.15-6.58l1.44-.34c.8,2.56,2.85,6.59,6.83,6.59,2.58,0,4.14-1.68,4.14-4.23s-1.5-3.88-4.89-5.71c-4.15-2.24-6.72-4.2-6.72-8.18s3.15-7.26,8.86-7.26c2.56,0,4.67.6,5.53.73.16,1.46.4,3.36.71,5.89l-1.41.32Z"/>
  </g>
  <g id="HATCH-22" data-name="HATCH">
    <path class="cls-7" d="M228.88,191.59c-.75-2.57-1.87-5.36-5.55-5.36-2.58,0-3.94,1.85-3.94,4.02,0,2.38,1.57,3.72,5,5.45,4.43,2.23,6.91,4.21,6.91,8.09,0,4.51-3.8,7.84-9.29,7.84-2.49,0-4.68-.68-6.47-1.26-.27-.98-.87-4.62-1.15-6.58l1.44-.34c.8,2.56,2.85,6.59,6.83,6.59,2.58,0,4.14-1.68,4.14-4.23s-1.5-3.88-4.89-5.71c-4.15-2.24-6.72-4.2-6.72-8.18s3.15-7.26,8.86-7.26c2.56,0,4.67.6,5.53.73.16,1.46.4,3.36.71,5.89l-1.41.32Z"/>
  </g>
  <g id="SPLINE-28" data-name="SPLINE">
    <path class="cls-4" d="M62.49,237.58v-.92c2.11-.22,2.23-.4,2.22-2.99v-10.71c-2.05,4.75-4.68,10.8-6.28,14.61h-.83c-1.46-3.72-3.78-9.59-5.76-14.38-.39,8.83-.4,10.66-.4,11.48.03,1.48.61,1.8,2.58,1.99v.92h-6.6v-.92c1.55-.14,2.23-.45,2.45-2.02.13-.94.21-2.29.86-11.53.09-1.34-.13-1.97-2.47-2.19v-.92h5.44l5.48,12.54,5.65-12.54h5.36v.92c-2.22.23-2.48.46-2.43,2.53l.18,10.22c.06,2.59.15,2.71,2.41,2.99v.92h-7.86Z"/>
  </g>
  <g id="HATCH-23" data-name="HATCH">
    <path class="cls-7" d="M62.49,237.58v-.92c2.11-.22,2.23-.4,2.22-2.99v-10.71c-2.05,4.75-4.68,10.8-6.28,14.61h-.83c-1.46-3.72-3.78-9.59-5.76-14.38-.39,8.83-.4,10.66-.4,11.48.03,1.48.61,1.8,2.58,1.99v.92h-6.6v-.92c1.55-.14,2.23-.45,2.45-2.02.13-.94.21-2.29.86-11.53.09-1.34-.13-1.97-2.47-2.19v-.92h5.44l5.48,12.54,5.65-12.54h5.36v.92c-2.22.23-2.48.46-2.43,2.53l.18,10.22c.06,2.59.15,2.71,2.41,2.99v.92h-7.86Z"/>
  </g>
  <g id="SPLINE-29" data-name="SPLINE">
    <path class="cls-4" d="M87.06,233.09c-.14.72-.89,3.71-1.14,4.49h-13.71v-.9c2.48-.22,2.65-.4,2.65-2.65v-10.45c0-2.33-.31-2.49-2.22-2.66v-.92h8.6c2.73,0,3.72-.03,4.08-.05.03.55.15,2.7.26,4.29l-.97.14c-.24-.92-.64-1.84-1.04-2.35-.47-.66-.91-.84-2.38-.84h-2.04c-.96,0-1.05.06-1.05.94v5.76h2.77c1.69,0,1.92-.41,2.29-2.3h.98v5.87h-.98c-.4-1.98-.62-2.29-2.32-2.29h-2.74v4.9c0,1.87.24,2.3,1.81,2.33h2.13c1.56,0,1.92-.21,2.51-.93.62-.71,1.17-1.75,1.58-2.63l.93.23Z"/>
  </g>
  <g id="HATCH-24" data-name="HATCH">
    <path class="cls-7" d="M87.06,233.09c-.14.72-.89,3.71-1.14,4.49h-13.71v-.9c2.48-.22,2.65-.4,2.65-2.65v-10.45c0-2.33-.31-2.49-2.22-2.66v-.92h8.6c2.73,0,3.72-.03,4.08-.05.03.55.15,2.7.26,4.29l-.97.14c-.24-.92-.64-1.84-1.04-2.35-.47-.66-.91-.84-2.38-.84h-2.04c-.96,0-1.05.06-1.05.94v5.76h2.77c1.69,0,1.92-.41,2.29-2.3h.98v5.87h-.98c-.4-1.98-.62-2.29-2.32-2.29h-2.74v4.9c0,1.87.24,2.3,1.81,2.33h2.13c1.56,0,1.92-.21,2.51-.93.62-.71,1.17-1.75,1.58-2.63l.93.23Z"/>
  </g>
  <g id="SPLINE-30" data-name="SPLINE">
    <path class="cls-4" d="M103.49,237.58v-.92c2.11-.22,2.23-.4,2.22-2.99v-10.71c-2.05,4.75-4.68,10.8-6.28,14.61h-.83c-1.46-3.72-3.78-9.59-5.76-14.38-.39,8.83-.4,10.66-.4,11.48.03,1.48.61,1.8,2.58,1.99v.92h-6.6v-.92c1.55-.14,2.23-.45,2.45-2.02.13-.94.21-2.29.86-11.53.09-1.34-.13-1.97-2.47-2.19v-.92h5.44l5.48,12.54,5.65-12.54h5.36v.92c-2.22.23-2.48.46-2.43,2.53l.18,10.22c.06,2.59.15,2.71,2.41,2.99v.92h-7.86Z"/>
  </g>
  <g id="HATCH-25" data-name="HATCH">
    <path class="cls-7" d="M103.49,237.58v-.92c2.11-.22,2.23-.4,2.22-2.99v-10.71c-2.05,4.75-4.68,10.8-6.28,14.61h-.83c-1.46-3.72-3.78-9.59-5.76-14.38-.39,8.83-.4,10.66-.4,11.48.03,1.48.61,1.8,2.58,1.99v.92h-6.6v-.92c1.55-.14,2.23-.45,2.45-2.02.13-.94.21-2.29.86-11.53.09-1.34-.13-1.97-2.47-2.19v-.92h5.44l5.48,12.54,5.65-12.54h5.36v.92c-2.22.23-2.48.46-2.43,2.53l.18,10.22c.06,2.59.15,2.71,2.41,2.99v.92h-7.86Z"/>
  </g>
  <g id="SPLINE-31" data-name="SPLINE">
    <path class="cls-4" d="M122.41,220.75c-2.85,0-5.13,2.65-5.13,7.52s2.14,8.57,5.86,8.57c2.81,0,4.97-2.47,4.97-7.51,0-5.46-2.42-8.59-5.7-8.59Z"/>
  </g>
  <g id="SPLINE-32" data-name="SPLINE">
    <path class="cls-4" d="M122.86,219.63c4.87,0,8.97,3.61,8.97,8.95,0,5.78-4.05,9.4-9.11,9.4-5.33,0-9.2-3.95-9.2-9.11,0-4.7,3.34-9.24,9.35-9.24Z"/>
  </g>
  <g id="HATCH-26" data-name="HATCH">
    <path class="cls-7" d="M122.41,220.75c-2.85,0-5.13,2.65-5.13,7.52s2.14,8.57,5.86,8.57c2.81,0,4.97-2.47,4.97-7.51,0-5.46-2.42-8.59-5.7-8.59M122.86,219.63c4.87,0,8.97,3.61,8.97,8.95,0,5.78-4.05,9.4-9.11,9.4-5.33,0-9.2-3.95-9.2-9.11,0-4.7,3.34-9.24,9.35-9.24Z"/>
  </g>
  <g id="SPLINE-33" data-name="SPLINE">
    <path class="cls-4" d="M140.76,228.94c1.25,0,2.14-.2,2.76-.73.95-.77,1.35-1.81,1.35-3.22,0-2.87-1.74-3.91-3.46-3.91-.75,0-1.14.11-1.31.27-.21.17-.27.48-.27,1.07v6.52h.93Z"/>
  </g>
  <g id="SPLINE-34" data-name="SPLINE">
    <path class="cls-4" d="M150.94,237.76c-.23,0-.54,0-.88-.04-2.92-.15-3.94-.81-4.88-2.13-1.05-1.45-1.9-3.12-2.8-4.65-.45-.78-.82-.94-1.87-.94l-.68-.02v4.05c0,2.23.28,2.4,2.35,2.63v.92h-7.9v-.92c2.12-.23,2.34-.4,2.34-2.63v-10.5c0-2.19-.28-2.41-2.34-2.6v-.92h7.51c2.25,0,3.61.26,4.69.99,1.09.72,1.82,1.92,1.82,3.58,0,2.38-1.56,3.71-3.42,4.47.43.82,1.53,2.6,2.34,3.83.97,1.47,1.53,2.18,2.08,2.8.66.73,1.07.98,1.8,1.21l-.16.86Z"/>
  </g>
  <g id="HATCH-27" data-name="HATCH">
    <path class="cls-7" d="M140.76,228.94c1.25,0,2.14-.2,2.76-.73.95-.77,1.35-1.81,1.35-3.22,0-2.87-1.74-3.91-3.46-3.91-.75,0-1.14.11-1.31.27-.21.17-.27.48-.27,1.07v6.52h.93M150.94,237.76c-.23,0-.54,0-.88-.04-2.92-.15-3.94-.81-4.88-2.13-1.05-1.45-1.9-3.12-2.8-4.65-.45-.78-.82-.94-1.87-.94l-.68-.02v4.05c0,2.23.28,2.4,2.35,2.63v.92h-7.9v-.92c2.12-.23,2.34-.4,2.34-2.63v-10.5c0-2.19-.28-2.41-2.34-2.6v-.92h7.51c2.25,0,3.61.26,4.69.99,1.09.72,1.82,1.92,1.82,3.58,0,2.38-1.56,3.71-3.42,4.47.43.82,1.53,2.6,2.34,3.83.97,1.47,1.53,2.18,2.08,2.8.66.73,1.07.98,1.8,1.21l-.16.86Z"/>
  </g>
  <g id="SPLINE-35" data-name="SPLINE">
    <path class="cls-4" d="M152.04,237.58v-.92c2.11-.21,2.34-.35,2.34-2.63v-10.45c0-2.29-.25-2.47-2.34-2.66v-.92h7.96v.92c-2.1.21-2.35.37-2.35,2.66v10.45c0,2.27.23,2.4,2.35,2.63v.92h-7.96Z"/>
  </g>
  <g id="HATCH-28" data-name="HATCH">
    <path class="cls-7" d="M152.04,237.58v-.92c2.11-.21,2.34-.35,2.34-2.63v-10.45c0-2.29-.25-2.47-2.34-2.66v-.92h7.96v.92c-2.1.21-2.35.37-2.35,2.66v10.45c0,2.27.23,2.4,2.35,2.63v.92h-7.96Z"/>
  </g>
  <g id="SPLINE-36" data-name="SPLINE">
    <path class="cls-4" d="M169.14,224.14c-.81,2.08-1.63,4.12-2.35,6.15h4.56l-2.21-6.15Z"/>
  </g>
  <g id="SPLINE-37" data-name="SPLINE">
    <path class="cls-4" d="M171.63,237.58v-.92c1.72-.23,1.8-.52,1.42-1.64-.3-.9-.77-2.16-1.23-3.46h-5.47c-.35.97-.73,2.01-1.04,2.94-.58,1.72-.02,1.94,2.14,2.16v.92h-6.52v-.92c1.7-.22,2.14-.44,3.06-2.77l5.61-14.05,1.15-.21c1.72,4.67,3.57,9.59,5.31,14.16.95,2.46,1.2,2.65,3.01,2.87v.92h-7.43Z"/>
  </g>
  <g id="HATCH-29" data-name="HATCH">
    <path class="cls-7" d="M169.14,224.14c-.81,2.08-1.63,4.12-2.35,6.15h4.56l-2.21-6.15M171.63,237.58v-.92c1.72-.23,1.8-.52,1.42-1.64-.3-.9-.77-2.16-1.23-3.46h-5.47c-.35.97-.73,2.01-1.04,2.94-.58,1.72-.02,1.94,2.14,2.16v.92h-6.52v-.92c1.7-.22,2.14-.44,3.06-2.77l5.61-14.05,1.15-.21c1.72,4.67,3.57,9.59,5.31,14.16.95,2.46,1.2,2.65,3.01,2.87v.92h-7.43Z"/>
  </g>
  <g id="SPLINE-38" data-name="SPLINE">
    <path class="cls-4" d="M194.15,232.91c-.2,1.05-.97,3.89-1.23,4.66h-13.11v-.92c2.41-.19,2.62-.36,2.62-2.64v-10.45c0-2.28-.27-2.47-2.34-2.65v-.92h8.02v.92c-2.13.2-2.41.36-2.41,2.65v10.67c0,1.54.11,2.12,1.62,2.14.04.02,1.53.03,1.66.03,1.48,0,1.89-.27,2.53-.98.57-.6,1.23-1.73,1.68-2.8l.96.29Z"/>
  </g>
  <g id="HATCH-30" data-name="HATCH">
    <path class="cls-7" d="M194.15,232.91c-.2,1.05-.97,3.89-1.23,4.66h-13.11v-.92c2.41-.19,2.62-.36,2.62-2.64v-10.45c0-2.28-.27-2.47-2.34-2.65v-.92h8.02v.92c-2.13.2-2.41.36-2.41,2.65v10.67c0,1.54.11,2.12,1.62,2.14.04.02,1.53.03,1.66.03,1.48,0,1.89-.27,2.53-.98.57-.6,1.23-1.73,1.68-2.8l.96.29Z"/>
  </g>
  <g id="SPLINE-39" data-name="SPLINE">
    <path class="cls-4" d="M14.35,255.49c0,1.27.4,1.67,1.69,1.67,2.64,0,4.09-1.82,4.09-5.04,0-1.75-.52-3.2-1.53-3.98-.76-.65-1.71-.88-2.88-.88-.7,0-1.04.13-1.17.24-.16.14-.2.4-.2.97v7.02Z"/>
  </g>
  <g id="SPLINE-40" data-name="SPLINE">
    <path class="cls-4" d="M15.91,246.55c2.32,0,3.93.48,5.04,1.52.88.83,1.54,2.05,1.54,3.79,0,2.02-.84,3.61-2.19,4.62-1.31.99-2.98,1.44-5.03,1.44h-4.56v-.59c1.39-.12,1.52-.26,1.52-1.71v-6.76c0-1.48-.2-1.6-1.52-1.71v-.59h5.19Z"/>
  </g>
  <g id="HATCH-31" data-name="HATCH">
    <path class="cls-7" d="M14.35,255.49c0,1.27.4,1.67,1.69,1.67,2.64,0,4.09-1.82,4.09-5.04,0-1.75-.52-3.2-1.53-3.98-.76-.65-1.71-.88-2.88-.88-.7,0-1.04.13-1.17.24-.16.14-.2.4-.2.97v7.02M15.91,246.55c2.32,0,3.93.48,5.04,1.52.88.83,1.54,2.05,1.54,3.79,0,2.02-.84,3.61-2.19,4.62-1.31.99-2.98,1.44-5.03,1.44h-4.56v-.59c1.39-.12,1.52-.26,1.52-1.71v-6.76c0-1.48-.2-1.6-1.52-1.71v-.59h5.19Z"/>
  </g>
  <g id="SPLINE-41" data-name="SPLINE">
    <path class="cls-4" d="M24.08,257.92v-.59c1.37-.13,1.52-.23,1.52-1.7v-6.76c0-1.48-.16-1.6-1.52-1.72v-.59h5.15v.59c-1.36.13-1.52.24-1.52,1.72v6.76c0,1.47.15,1.56,1.52,1.7v.59h-5.15Z"/>
  </g>
  <g id="HATCH-32" data-name="HATCH">
    <path class="cls-7" d="M24.08,257.92v-.59c1.37-.13,1.52-.23,1.52-1.7v-6.76c0-1.48-.16-1.6-1.52-1.72v-.59h5.15v.59c-1.36.13-1.52.24-1.52,1.72v6.76c0,1.47.15,1.56,1.52,1.7v.59h-5.15Z"/>
  </g>
  <g id="SPLINE-42" data-name="SPLINE">
    <path class="cls-4" d="M37.03,249.35c-.33-1.13-.82-2.36-2.44-2.36-1.14,0-1.73.81-1.73,1.77,0,1.05.69,1.64,2.2,2.4,1.95.98,3.04,1.85,3.04,3.56,0,1.98-1.67,3.45-4.09,3.45-1.09,0-2.06-.3-2.85-.55-.12-.43-.38-2.03-.51-2.9l.63-.15c.35,1.13,1.26,2.9,3.01,2.9,1.13,0,1.82-.74,1.82-1.86s-.66-1.71-2.15-2.51c-1.82-.99-2.96-1.85-2.96-3.6s1.38-3.2,3.9-3.2c1.13,0,2.05.26,2.43.32.07.64.17,1.48.31,2.59l-.62.14Z"/>
  </g>
  <g id="HATCH-33" data-name="HATCH">
    <path class="cls-7" d="M37.03,249.35c-.33-1.13-.82-2.36-2.44-2.36-1.14,0-1.73.81-1.73,1.77,0,1.05.69,1.64,2.2,2.4,1.95.98,3.04,1.85,3.04,3.56,0,1.98-1.67,3.45-4.09,3.45-1.09,0-2.06-.3-2.85-.55-.12-.43-.38-2.03-.51-2.9l.63-.15c.35,1.13,1.26,2.9,3.01,2.9,1.13,0,1.82-.74,1.82-1.86s-.66-1.71-2.15-2.51c-1.82-.99-2.96-1.85-2.96-3.6s1.38-3.2,3.9-3.2c1.13,0,2.05.26,2.43.32.07.64.17,1.48.31,2.59l-.62.14Z"/>
  </g>
  <g id="SPLINE-43" data-name="SPLINE">
    <path class="cls-4" d="M50.37,254.98c-.24.86-.7,2.17-.97,2.75-.47.1-1.88.44-3.21.44-4.52,0-6.53-2.94-6.53-5.82,0-3.6,2.74-6.06,6.84-6.06,1.52,0,2.82.35,3.31.41.08.81.2,2.02.33,2.82l-.64.12c-.36-1.3-.85-1.97-1.76-2.34-.43-.19-1.09-.27-1.63-.27-2.66,0-4.02,2.12-4.02,4.92,0,3.26,1.68,5.43,4.23,5.43,1.58,0,2.52-.79,3.45-2.65l.62.23Z"/>
  </g>
  <g id="HATCH-34" data-name="HATCH">
    <path class="cls-7" d="M50.37,254.98c-.24.86-.7,2.17-.97,2.75-.47.1-1.88.44-3.21.44-4.52,0-6.53-2.94-6.53-5.82,0-3.6,2.74-6.06,6.84-6.06,1.52,0,2.82.35,3.31.41.08.81.2,2.02.33,2.82l-.64.12c-.36-1.3-.85-1.97-1.76-2.34-.43-.19-1.09-.27-1.63-.27-2.66,0-4.02,2.12-4.02,4.92,0,3.26,1.68,5.43,4.23,5.43,1.58,0,2.52-.79,3.45-2.65l.62.23Z"/>
  </g>
  <g id="SPLINE-44" data-name="SPLINE">
    <path class="cls-4" d="M67.35,253.13c-1.03.16-1.13.24-1.13,1.38v1.39c0,.62.02,1.21.1,1.68-.96.19-2.71.6-4.14.6-4.06,0-6.44-2.49-6.44-5.97,0-3.85,3.13-5.9,6.78-5.9,1.55,0,3,.35,3.57.41.03.73.16,1.96.29,2.98l-.63.12c-.42-1.49-1.02-2.2-2.11-2.56-.4-.14-1.07-.22-1.54-.22-2.31,0-3.95,1.84-3.95,4.91s1.21,5.52,4.26,5.52c.44,0,.92-.08,1.25-.26.3-.18.47-.44.47-1.04v-1.5c0-1.24-.21-1.37-1.75-1.53v-.6h4.97v.6Z"/>
  </g>
  <g id="HATCH-35" data-name="HATCH">
    <path class="cls-7" d="M67.35,253.13c-1.03.16-1.13.24-1.13,1.38v1.39c0,.62.02,1.21.1,1.68-.96.19-2.71.6-4.14.6-4.06,0-6.44-2.49-6.44-5.97,0-3.85,3.13-5.9,6.78-5.9,1.55,0,3,.35,3.57.41.03.73.16,1.96.29,2.98l-.63.12c-.42-1.49-1.02-2.2-2.11-2.56-.4-.14-1.07-.22-1.54-.22-2.31,0-3.95,1.84-3.95,4.91s1.21,5.52,4.26,5.52c.44,0,.92-.08,1.25-.26.3-.18.47-.44.47-1.04v-1.5c0-1.24-.21-1.37-1.75-1.53v-.6h4.97v.6Z"/>
  </g>
  <g id="SPLINE-45" data-name="SPLINE">
    <path class="cls-4" d="M74.96,247.03c-1.84,0-3.32,1.71-3.32,4.87s1.39,5.55,3.79,5.55c1.82,0,3.22-1.6,3.22-4.86,0-3.54-1.57-5.56-3.69-5.56Z"/>
  </g>
  <g id="SPLINE-46" data-name="SPLINE">
    <path class="cls-4" d="M75.26,246.3c3.15,0,5.8,2.34,5.8,5.79,0,3.74-2.62,6.08-5.9,6.08-3.45,0-5.95-2.55-5.95-5.9,0-3.04,2.16-5.98,6.05-5.98Z"/>
  </g>
  <g id="HATCH-36" data-name="HATCH">
    <path class="cls-7" d="M74.96,247.03c-1.84,0-3.32,1.71-3.32,4.87s1.39,5.55,3.79,5.55c1.82,0,3.22-1.6,3.22-4.86,0-3.54-1.57-5.56-3.69-5.56M75.26,246.3c3.15,0,5.8,2.34,5.8,5.79,0,3.74-2.62,6.08-5.9,6.08-3.45,0-5.95-2.55-5.95-5.9,0-3.04,2.16-5.98,6.05-5.98Z"/>
  </g>
  <g id="SPLINE-47" data-name="SPLINE">
    <path class="cls-4" d="M91.74,254.9c-.13.68-.63,2.52-.79,3.02h-8.48v-.59c1.56-.12,1.7-.23,1.7-1.71v-6.76c0-1.47-.17-1.6-1.52-1.71v-.59h5.19v.59c-1.38.13-1.56.23-1.56,1.71v6.9c0,1,.07,1.37,1.05,1.39.03.01.99.02,1.07.02.96,0,1.22-.17,1.64-.63.37-.39.79-1.12,1.09-1.81l.62.19Z"/>
  </g>
  <g id="HATCH-37" data-name="HATCH">
    <path class="cls-7" d="M91.74,254.9c-.13.68-.63,2.52-.79,3.02h-8.48v-.59c1.56-.12,1.7-.23,1.7-1.71v-6.76c0-1.47-.17-1.6-1.52-1.71v-.59h5.19v.59c-1.38.13-1.56.23-1.56,1.71v6.9c0,1,.07,1.37,1.05,1.39.03.01.99.02,1.07.02.96,0,1.22-.17,1.64-.63.37-.39.79-1.12,1.09-1.81l.62.19Z"/>
  </g>
  <g id="SPLINE-48" data-name="SPLINE">
    <path class="cls-4" d="M100.6,249.39c-.18-.6-.41-1.17-.69-1.52-.36-.46-.59-.55-1.48-.55h-1.51c-.56,0-.63.04-.63.61v3.89h1.98c1.11,0,1.23-.24,1.5-1.47h.6v3.8h-.62c-.2-1.2-.42-1.49-1.48-1.49h-1.98v2.87c0,1.58.13,1.68,1.71,1.8v.59h-5.34v-.59c1.36-.12,1.52-.23,1.52-1.8v-6.61c0-1.54-.16-1.66-1.52-1.78v-.59h5.79c1.53,0,2.31-.02,2.59-.03.02.41.1,1.82.19,2.78l-.63.09Z"/>
  </g>
  <g id="HATCH-38" data-name="HATCH">
    <path class="cls-7" d="M100.6,249.39c-.18-.6-.41-1.17-.69-1.52-.36-.46-.59-.55-1.48-.55h-1.51c-.56,0-.63.04-.63.61v3.89h1.98c1.11,0,1.23-.24,1.5-1.47h.6v3.8h-.62c-.2-1.2-.42-1.49-1.48-1.49h-1.98v2.87c0,1.58.13,1.68,1.71,1.8v.59h-5.34v-.59c1.36-.12,1.52-.23,1.52-1.8v-6.61c0-1.54-.16-1.66-1.52-1.78v-.59h5.79c1.53,0,2.31-.02,2.59-.03.02.41.1,1.82.19,2.78l-.63.09Z"/>
  </g>
  <g id="SPLINE-49" data-name="SPLINE">
    <path class="cls-4" d="M115.9,249.47c-.18-.72-.5-1.35-.68-1.62-.3-.4-.45-.54-1.46-.54h-1.34v8.32c0,1.43.16,1.57,1.76,1.68v.59h-5.56v-.59c1.54-.12,1.69-.25,1.69-1.68v-8.32h-1.25c-.97,0-1.25.14-1.57.6-.23.34-.44.89-.67,1.58h-.62c.12-1.2.23-2.48.27-3.36h.48c.26.41.47.43.98.43h6.97c.48,0,.69-.09.97-.43h.48c.01.77.08,2.21.17,3.3l-.62.05Z"/>
  </g>
  <g id="HATCH-39" data-name="HATCH">
    <path class="cls-7" d="M115.9,249.47c-.18-.72-.5-1.35-.68-1.62-.3-.4-.45-.54-1.46-.54h-1.34v8.32c0,1.43.16,1.57,1.76,1.68v.59h-5.56v-.59c1.54-.12,1.69-.25,1.69-1.68v-8.32h-1.25c-.97,0-1.25.14-1.57.6-.23.34-.44.89-.67,1.58h-.62c.12-1.2.23-2.48.27-3.36h.48c.26.41.47.43.98.43h6.97c.48,0,.69-.09.97-.43h.48c.01.77.08,2.21.17,3.3l-.62.05Z"/>
  </g>
  <g id="SPLINE-50" data-name="SPLINE">
    <path class="cls-4" d="M123.59,247.03c-1.84,0-3.32,1.71-3.32,4.87s1.39,5.55,3.79,5.55c1.82,0,3.22-1.6,3.22-4.86,0-3.54-1.57-5.56-3.69-5.56Z"/>
  </g>
  <g id="SPLINE-51" data-name="SPLINE">
    <path class="cls-4" d="M123.88,246.3c3.15,0,5.8,2.34,5.8,5.79,0,3.74-2.62,6.08-5.9,6.08-3.45,0-5.95-2.55-5.95-5.9,0-3.04,2.16-5.98,6.05-5.98Z"/>
  </g>
  <g id="HATCH-40" data-name="HATCH">
    <path class="cls-7" d="M123.59,247.03c-1.84,0-3.32,1.71-3.32,4.87s1.39,5.55,3.79,5.55c1.82,0,3.22-1.6,3.22-4.86,0-3.54-1.57-5.56-3.69-5.56M123.88,246.3c3.15,0,5.8,2.34,5.8,5.79,0,3.74-2.62,6.08-5.9,6.08-3.45,0-5.95-2.55-5.95-5.9,0-3.04,2.16-5.98,6.05-5.98Z"/>
  </g>
  <g id="SPLINE-52" data-name="SPLINE">
    <path class="cls-4" d="M143.28,247.14c-1.11.09-1.45.41-1.5,1.1-.04.48-.07,1.13-.07,2.48v2.15c0,1.6-.23,3.07-1.24,4.12-.81.85-2.03,1.18-3.26,1.18-1.11,0-2.23-.23-3.04-.87-1.03-.78-1.52-1.9-1.52-3.89v-4.44c0-1.6-.15-1.71-1.51-1.84v-.59h5.12v.59c-1.34.11-1.49.24-1.49,1.84v4.55c0,2.17,1.05,3.5,3,3.5,2.22,0,3.09-1.54,3.09-4.26v-2.05c0-1.35-.05-1.99-.09-2.5-.06-.8-.52-1.02-1.77-1.09v-.59h4.29v.59Z"/>
  </g>
  <g id="HATCH-41" data-name="HATCH">
    <path class="cls-7" d="M143.28,247.14c-1.11.09-1.45.41-1.5,1.1-.04.48-.07,1.13-.07,2.48v2.15c0,1.6-.23,3.07-1.24,4.12-.81.85-2.03,1.18-3.26,1.18-1.11,0-2.23-.23-3.04-.87-1.03-.78-1.52-1.9-1.52-3.89v-4.44c0-1.6-.15-1.71-1.51-1.84v-.59h5.12v.59c-1.34.11-1.49.24-1.49,1.84v4.55c0,2.17,1.05,3.5,3,3.5,2.22,0,3.09-1.54,3.09-4.26v-2.05c0-1.35-.05-1.99-.09-2.5-.06-.8-.52-1.02-1.77-1.09v-.59h4.29v.59Z"/>
  </g>
  <g id="SPLINE-53" data-name="SPLINE">
    <path class="cls-4" d="M148.37,252.33c.81,0,1.38-.13,1.79-.47.61-.5.87-1.17.87-2.08,0-1.86-1.13-2.53-2.24-2.53-.48,0-.74.07-.85.17-.13.11-.18.31-.18.7v4.22h.6Z"/>
  </g>
  <g id="SPLINE-54" data-name="SPLINE">
    <path class="cls-4" d="M154.96,258.03c-.15,0-.35,0-.57-.02-1.89-.1-2.55-.52-3.16-1.38-.68-.94-1.23-2.02-1.81-3.01-.29-.5-.53-.61-1.21-.61h-.44s0,2.61,0,2.61c0,1.44.18,1.55,1.52,1.7v.59h-5.11v-.59c1.37-.15,1.52-.26,1.52-1.7v-6.8c0-1.42-.18-1.56-1.52-1.69v-.59h4.86c1.46,0,2.34.17,3.04.64.71.47,1.18,1.24,1.18,2.32,0,1.54-1.01,2.4-2.21,2.89.28.53.99,1.68,1.51,2.48.62.95.99,1.41,1.35,1.81.43.47.69.63,1.16.78l-.1.56Z"/>
  </g>
  <g id="HATCH-42" data-name="HATCH">
    <path class="cls-7" d="M148.37,252.33c.81,0,1.38-.13,1.79-.47.61-.5.87-1.17.87-2.08,0-1.86-1.13-2.53-2.24-2.53-.48,0-.74.07-.85.17-.13.11-.18.31-.18.7v4.22h.6M154.96,258.03c-.15,0-.35,0-.57-.02-1.89-.1-2.55-.52-3.16-1.38-.68-.94-1.23-2.02-1.81-3.01-.29-.5-.53-.61-1.21-.61h-.44s0,2.61,0,2.61c0,1.44.18,1.55,1.52,1.7v.59h-5.11v-.59c1.37-.15,1.52-.26,1.52-1.7v-6.8c0-1.42-.18-1.56-1.52-1.69v-.59h4.86c1.46,0,2.34.17,3.04.64.71.47,1.18,1.24,1.18,2.32,0,1.54-1.01,2.4-2.21,2.89.28.53.99,1.68,1.51,2.48.62.95.99,1.41,1.35,1.81.43.47.69.63,1.16.78l-.1.56Z"/>
  </g>
  <g id="SPLINE-55" data-name="SPLINE">
    <path class="cls-4" d="M167.82,247.14c-1.09.13-1.43.34-1.48,1.14-.04.64-.09,1.28-.09,2.84v6.98h-.87l-7.36-8.89v4.1c0,1.54.04,2.26.09,2.77.06.81.45,1.17,1.73,1.25v.59h-4.31v-.59c1.03-.09,1.46-.35,1.55-1.18.06-.61.1-1.29.1-2.84v-4.26c0-.55-.03-.89-.36-1.32-.32-.44-.72-.51-1.5-.58v-.59h3.14l6.93,8.12v-3.55c0-1.56-.02-2.2-.08-2.8-.05-.76-.38-1.09-1.81-1.18v-.59h4.32v.59Z"/>
  </g>
  <g id="HATCH-43" data-name="HATCH">
    <path class="cls-7" d="M167.82,247.14c-1.09.13-1.43.34-1.48,1.14-.04.64-.09,1.28-.09,2.84v6.98h-.87l-7.36-8.89v4.1c0,1.54.04,2.26.09,2.77.06.81.45,1.17,1.73,1.25v.59h-4.31v-.59c1.03-.09,1.46-.35,1.55-1.18.06-.61.1-1.29.1-2.84v-4.26c0-.55-.03-.89-.36-1.32-.32-.44-.72-.51-1.5-.58v-.59h3.14l6.93,8.12v-3.55c0-1.56-.02-2.2-.08-2.8-.05-.76-.38-1.09-1.81-1.18v-.59h4.32v.59Z"/>
  </g>
  <g id="SPLINE-56" data-name="SPLINE">
    <path class="cls-4" d="M173.2,249.22c-.53,1.34-1.05,2.66-1.52,3.98h2.95l-1.43-3.98Z"/>
  </g>
  <g id="SPLINE-57" data-name="SPLINE">
    <path class="cls-4" d="M174.81,257.92v-.59c1.11-.15,1.16-.34.92-1.06-.19-.58-.5-1.4-.8-2.24h-3.54c-.22.63-.47,1.3-.67,1.9-.37,1.11-.02,1.25,1.38,1.39v.59h-4.22v-.59c1.1-.14,1.38-.28,1.98-1.79l3.63-9.09.74-.14c1.11,3.02,2.31,6.2,3.43,9.16.62,1.59.77,1.72,1.95,1.86v.59h-4.81Z"/>
  </g>
  <g id="HATCH-44" data-name="HATCH">
    <path class="cls-7" d="M173.2,249.22c-.53,1.34-1.05,2.66-1.52,3.98h2.95l-1.43-3.98M174.81,257.92v-.59c1.11-.15,1.16-.34.92-1.06-.19-.58-.5-1.4-.8-2.24h-3.54c-.22.63-.47,1.3-.67,1.9-.37,1.11-.02,1.25,1.38,1.39v.59h-4.22v-.59c1.1-.14,1.38-.28,1.98-1.79l3.63-9.09.74-.14c1.11,3.02,2.31,6.2,3.43,9.16.62,1.59.77,1.72,1.95,1.86v.59h-4.81Z"/>
  </g>
  <g id="SPLINE-58" data-name="SPLINE">
    <path class="cls-4" d="M189.55,257.92v-.59c1.37-.14,1.44-.26,1.43-1.93v-6.93c-1.33,3.08-3.03,6.99-4.06,9.46h-.53c-.95-2.41-2.45-6.21-3.73-9.3-.25,5.71-.26,6.9-.26,7.43.02.96.4,1.16,1.67,1.29v.59h-4.27v-.59c1-.09,1.45-.29,1.59-1.3.08-.61.13-1.48.55-7.46.06-.86-.08-1.27-1.6-1.41v-.59h3.52l3.55,8.12,3.66-8.12h3.47v.59c-1.44.15-1.61.3-1.57,1.64l.12,6.61c.04,1.68.1,1.75,1.56,1.93v.59h-5.08Z"/>
  </g>
  <g id="HATCH-45" data-name="HATCH">
    <path class="cls-7" d="M189.55,257.92v-.59c1.37-.14,1.44-.26,1.43-1.93v-6.93c-1.33,3.08-3.03,6.99-4.06,9.46h-.53c-.95-2.41-2.45-6.21-3.73-9.3-.25,5.71-.26,6.9-.26,7.43.02.96.4,1.16,1.67,1.29v.59h-4.27v-.59c1-.09,1.45-.29,1.59-1.3.08-.61.13-1.48.55-7.46.06-.86-.08-1.27-1.6-1.41v-.59h3.52l3.55,8.12,3.66-8.12h3.47v.59c-1.44.15-1.61.3-1.57,1.64l.12,6.61c.04,1.68.1,1.75,1.56,1.93v.59h-5.08Z"/>
  </g>
  <g id="SPLINE-59" data-name="SPLINE">
    <path class="cls-4" d="M205.44,255.01c-.09.47-.58,2.4-.74,2.91h-8.87v-.58c1.6-.14,1.71-.26,1.71-1.71v-6.76c0-1.51-.2-1.61-1.44-1.72v-.59h5.57c1.77,0,2.41-.02,2.64-.03.02.36.1,1.75.17,2.78l-.63.09c-.16-.59-.41-1.19-.67-1.52-.3-.43-.59-.54-1.54-.54h-1.32c-.62,0-.68.04-.68.61v3.73h1.79c1.1,0,1.24-.26,1.48-1.49h.63v3.8h-.63c-.26-1.28-.4-1.48-1.5-1.48h-1.78v3.17c0,1.21.16,1.49,1.17,1.51h1.38c1.01,0,1.24-.13,1.63-.6.4-.46.76-1.13,1.02-1.7l.6.15Z"/>
  </g>
  <g id="HATCH-46" data-name="HATCH">
    <path class="cls-7" d="M205.44,255.01c-.09.47-.58,2.4-.74,2.91h-8.87v-.58c1.6-.14,1.71-.26,1.71-1.71v-6.76c0-1.51-.2-1.61-1.44-1.72v-.59h5.57c1.77,0,2.41-.02,2.64-.03.02.36.1,1.75.17,2.78l-.63.09c-.16-.59-.41-1.19-.67-1.52-.3-.43-.59-.54-1.54-.54h-1.32c-.62,0-.68.04-.68.61v3.73h1.79c1.1,0,1.24-.26,1.48-1.49h.63v3.8h-.63c-.26-1.28-.4-1.48-1.5-1.48h-1.78v3.17c0,1.21.16,1.49,1.17,1.51h1.38c1.01,0,1.24-.13,1.63-.6.4-.46.76-1.13,1.02-1.7l.6.15Z"/>
  </g>
  <g id="SPLINE-60" data-name="SPLINE">
    <path class="cls-4" d="M218.69,247.14c-1.09.13-1.43.34-1.48,1.14-.04.64-.09,1.28-.09,2.84v6.98h-.87l-7.36-8.89v4.1c0,1.54.04,2.26.09,2.77.06.81.45,1.17,1.73,1.25v.59h-4.31v-.59c1.03-.09,1.46-.35,1.55-1.18.06-.61.1-1.29.1-2.84v-4.26c0-.55-.03-.89-.36-1.32-.32-.44-.72-.51-1.5-.58v-.59h3.13l6.93,8.12v-3.55c0-1.56-.02-2.2-.08-2.8-.05-.76-.37-1.09-1.81-1.18v-.59h4.32v.59Z"/>
  </g>
  <g id="HATCH-47" data-name="HATCH">
    <path class="cls-7" d="M218.69,247.14c-1.09.13-1.43.34-1.48,1.14-.04.64-.09,1.28-.09,2.84v6.98h-.87l-7.36-8.89v4.1c0,1.54.04,2.26.09,2.77.06.81.45,1.17,1.73,1.25v.59h-4.31v-.59c1.03-.09,1.46-.35,1.55-1.18.06-.61.1-1.29.1-2.84v-4.26c0-.55-.03-.89-.36-1.32-.32-.44-.72-.51-1.5-.58v-.59h3.13l6.93,8.12v-3.55c0-1.56-.02-2.2-.08-2.8-.05-.76-.37-1.09-1.81-1.18v-.59h4.32v.59Z"/>
  </g>
  <g id="SPLINE-61" data-name="SPLINE">
    <path class="cls-4" d="M229.59,249.47c-.18-.72-.5-1.35-.68-1.62-.3-.4-.45-.54-1.46-.54h-1.34v8.32c0,1.43.16,1.57,1.76,1.68v.59h-5.56v-.59c1.53-.12,1.69-.25,1.69-1.68v-8.32h-1.25c-.97,0-1.25.14-1.57.6-.23.34-.44.89-.67,1.58h-.62c.12-1.2.23-2.48.27-3.36h.48c.26.41.47.43.98.43h6.97c.48,0,.69-.09.97-.43h.48c.01.77.08,2.21.17,3.3l-.62.05Z"/>
  </g>
  <g id="HATCH-48" data-name="HATCH">
    <path class="cls-7" d="M229.59,249.47c-.18-.72-.5-1.35-.68-1.62-.3-.4-.45-.54-1.46-.54h-1.34v8.32c0,1.43.16,1.57,1.76,1.68v.59h-5.56v-.59c1.53-.12,1.69-.25,1.69-1.68v-8.32h-1.25c-.97,0-1.25.14-1.57.6-.23.34-.44.89-.67,1.58h-.62c.12-1.2.23-2.48.27-3.36h.48c.26.41.47.43.98.43h6.97c.48,0,.69-.09.97-.43h.48c.01.77.08,2.21.17,3.3l-.62.05Z"/>
  </g>
  <g id="SPLINE-62" data-name="SPLINE">
    <path class="cls-3" d="M80.44,57.8s1.66,53.41,7.57,55.12"/>
  </g>
  <g id="SPLINE-63" data-name="SPLINE">
    <path class="cls-3" d="M88.36,115.12c-13.22-6.22-14.92-57.16-14.92-57.16"/>
  </g>
  <g id="SPLINE-64" data-name="SPLINE">
    <path class="cls-3" d="M65.35,58.11s3.8,46.52,22.15,57.41"/>
  </g>
  <g id="SPLINE-65" data-name="SPLINE">
    <path class="cls-3" d="M59.29,61.28s4.06,47.84,28.68,54.98"/>
  </g>
</svg>